<?xml version="1.0" ?><svg width="20px" height="20px" viewBox="0 0 20 20" version="1.1" xmlns="http://www.w3.org/2000/svg"><g id="layer1"><path d="M 4 1 L 4 3 L 2 3 L 2 4 L 4 4 L 4 5 L 2 5 L 2 6 L 4 6 L 4 7 L 2 7 L 2 8 L 4 8 L 4 9 L 2 9 L 2 10 L 4 10 L 4 11 L 2 11 L 2 12 L 4 12 L 4 13 L 2 13 L 2 14 L 4 14 L 4 15 L 2 15 L 2 16 L 4 16 L 4 17 L 2 17 L 2 18 L 4 18 L 4 20 L 16 20 L 16 18 L 18 18 L 18 17 L 16 17 L 16 16 L 18 16 L 18 15 L 16 15 L 16 14 L 18 14 L 18 13 L 16 13 L 16 12 L 18 12 L 18 11 L 16 11 L 16 10 L 18 10 L 18 9 L 16 9 L 16 8 L 18 8 L 18 7 L 16 7 L 16 6 L 18 6 L 18 5 L 16 5 L 16 4 L 18 4 L 18 3 L 16 3 L 16 1 L 12 1 L 11 2 L 9 2 L 8 1 L 4 1 z M 5 2 L 7.5 2 L 8.5 3 L 11.5 3 L 12.5 2 L 15 2 L 15 19 L 5 19 L 5 2 z " style="fill:#222222; fill-opacity:1; stroke:none; stroke-width:0px;"/></g></svg>